#!OML:ASF H:\GeneralSubjects\Female5\Project 1\Capture day 1\Session 1\Female5.ASF
:FULLY-SPECIFIED
:DEGREES
328
root 6.16401 15.1826 0.927591 242.982 -80.1529 -237.969
lowerback 14.8507 1.77916 -2.18947
upperback -8.55633 1.35507 -2.53297
thorax -18.3472 0.567589 -2.1059
lowerneck -15.5557 -2.65743 -3.31189
upperneck 32.6537 -3.64722 -0.647317
head 13.7116 -2.44011 -0.356296
rclavicle 1.75924e-014 -3.1408e-014
rhumerus 17.9727 -10.8975 -24.4241
rradius 108.162
rwrist -3.07933
rhand -42.2513 1.2722
rfingers 7.12502
rthumb -15.1372 -28.1542
lclavicle 1.75924e-014 -3.1408e-014
lhumerus 28.7583 6.89832 30.5463
lradius 104.929
lwrist -26.3201
lhand -59.2658 30.9709
lfingers 7.12502
lthumb -31.4526 -301.715
rfemur -27.2022 17.2391 6.89048
rtibia 44.7384
rfoot -32.4078 -22.5068
rtoes -12.228
lfemur -23.5644 -7.56603 -30.3571
ltibia 38.5026
lfoot -27.3669 -8.3213
ltoes -49.2189
329
root 6.20718 15.2803 0.954578 242.043 -79.9953 -235.516
lowerback 14.1937 1.80713 -2.08779
upperback -9.0161 1.40928 -2.49986
thorax -18.4992 0.571272 -2.13247
lowerneck -15.5796 -2.63243 -3.14983
upperneck 32.7328 -3.58999 -0.880132
head 13.741 -2.43025 -0.469917
rclavicle 3.41413e-014 -1.19271e-014
rhumerus 18.2685 -10.4293 -24.9925
rradius 108.215
rwrist -3.29944
rhand -42.3372 1.62434
rfingers 7.12502
rthumb -15.22 -27.7958
lclavicle 3.41413e-014 -1.19271e-014
lhumerus 28.0628 7.22152 30.314
lradius 105.537
lwrist -26.2597
lhand -59.322 31.4269
lfingers 7.12502
lthumb -31.5062 -301.269
rfemur -28.6474 18.2495 6.26704
rtibia 43.4169
rfoot -32.0012 -22.5735
rtoes -10.106
lfemur -24.77 -8.70521 -30.0806
ltibia 37.4327
lfoot -27.7562 -7.80954
ltoes -48.9837
330
root 6.25034 15.3781 0.973522 240.104 -79.9559 -232.136
lowerback 13.6482 1.82922 -1.93651
upperback -9.45873 1.48019 -2.36246
thorax -18.7041 0.585532 -2.07345
lowerneck -15.7752 -2.55227 -2.99318
upperneck 32.9134 -3.42684 -1.16243
head 13.8515 -2.38229 -0.591275
rclavicle -5.81445e-015 1.39149e-014
rhumerus 18.457 -9.73186 -25.3207
rradius 108.413
rwrist -3.63589
rhand -42.581 1.53361
rfingers 7.12502
rthumb -15.4548 -27.8686
lclavicle -5.81445e-015 1.39149e-014
lhumerus 27.3397 7.49478 30.2455
lradius 106.079
lwrist -26.2979
lhand -59.2988 30.8576
lfingers 7.12502
lthumb -31.4841 -301.834
rfemur -29.8864 19.0642 5.88089
rtibia 41.735
rfoot -31.2006 -22.8179
rtoes -9.59915
lfemur -25.8156 -9.81696 -29.439
ltibia 36.1565
lfoot -28.2103 -7.23458
ltoes -48.7039
331
root 6.2894 15.4749 0.984418 236.845 -80.0764 -227.502
lowerback 13.1447 1.89008 -1.56457
upperback -9.83604 1.66236 -2.18607
thorax -18.8429 0.626496 -2.12291
lowerneck -16.1353 -2.5341 -2.90651
upperneck 32.9217 -3.37599 -1.23216
head 13.9306 -2.35272 -0.63254
rclavicle 1.07344e-014 -1.78906e-014
rhumerus 18.4832 -9.30266 -25.474
rradius 108.703
rwrist -3.70561
rhand -42.6265 1.00808
rfingers 7.12502
rthumb -15.4986 -28.3907
lclavicle 1.07344e-014 -1.78906e-014
lhumerus 26.7005 7.79306 30.0988
lradius 106.612
lwrist -26.2293
lhand -59.238 32.0658
lfingers 7.12502
lthumb -31.4261 -300.615
rfemur -30.8368 19.6741 5.89391
rtibia 39.7818
rfoot -30.2022 -22.8731
rtoes -9.84916
lfemur -26.7237 -10.8672 -28.3494
ltibia 34.8215
lfoot -28.7428 -6.60537
ltoes -48.3719
332
root 6.32662 15.5675 0.986969 232.694 -80.2644 -222.077
lowerback 12.751 2.01036 -1.11668
upperback -10.1589 1.94709 -1.9814
thorax -18.9795 0.706351 -2.2121
lowerneck -16.6365 -2.52874 -2.96974
upperneck 32.9139 -3.37542 -1.02802
head 14.0442 -2.32096 -0.54828
rclavicle 3.42904e-015 7.95139e-016
rhumerus 18.4095 -9.14339 -25.6798
rradius 108.91
rwrist -3.44944
rhand -42.4316 1.06856
rfingers 7.12502
rthumb -15.3109 -28.3447
lclavicle 3.42904e-015 7.95139e-016
lhumerus 26.0817 8.10479 29.7168
lradius 107.272
lwrist -25.7798
lhand -59.3019 33.9795
lfingers 7.12502
lthumb -31.487 -298.713
rfemur -31.6086 19.8738 6.21703
rtibia 37.8467
rfoot -29.3507 -22.6024
rtoes -11.4612
lfemur -27.538 -11.8008 -27.0127
ltibia 33.6269
lfoot -29.344 -6.08174
ltoes -48.0422
333
root 6.35922 15.6556 0.980832 228.379 -80.4418 -216.643
lowerback 12.4293 2.14819 -0.822508
upperback -10.4126 2.2349 -1.71473
thorax -19.0831 0.81584 -2.14186
lowerneck -16.9618 -2.61324 -3.15371
upperneck 32.8864 -3.47037 -0.859295
head 14.1141 -2.35326 -0.469746
rclavicle 3.88624e-014 -1.59028e-014
rhumerus 18.2263 -8.86884 -25.6949
rradius 109.086
rwrist -3.63396
rhand -42.2708 2.26894
rfingers 7.12502
rthumb -15.156 -27.1561
lclavicle 3.88624e-014 -1.59028e-014
lhumerus 25.5338 8.3217 29.4677
lradius 107.907
lwrist -25.4206
lhand -59.5086 34.6939
lfingers 7.12502
lthumb -31.6839 -298.037
rfemur -32.0277 19.6835 6.71184
rtibia 35.7171
rfoot -28.6953 -22.0424
rtoes -13.7759
lfemur -28.2269 -12.7546 -25.6489
ltibia 32.5394
lfoot -29.973 -5.66201
ltoes -47.8279
334
root 6.386 15.7394 0.964066 223.743 -80.6492 -211.051
lowerback 12.1056 2.25364 -0.665291
upperback -10.565 2.47072 -1.34783
thorax -19.0659 0.935744 -1.8574
lowerneck -17.394 -2.58887 -3.20987
upperneck 32.4927 -3.37786 -0.752323
head 14.0379 -2.2831 -0.39852
rclavicle 2.42517e-014 1.03368e-014
rhumerus 18.0825 -8.36359 -25.5282
rradius 109.241
rwrist -3.89819
rhand -42.3686 3.67824
rfingers 7.12502
rthumb -15.2502 -25.7396
lclavicle 2.42517e-014 1.03368e-014
lhumerus 25.169 8.22936 29.575
lradius 108.22
lwrist -25.627
lhand -59.5703 35.1152
lfingers 7.12502
lthumb -31.7427 -297.628
rfemur -31.9971 19.0982 7.49656
rtibia 33.3178
rfoot -27.7897 -21.6388
rtoes -15.4861
lfemur -28.7611 -13.7068 -24.1838
ltibia 31.4483
lfoot -30.5697 -5.33774
ltoes -47.7281
335
root 6.41059 15.816 0.936197 218.726 -80.8228 -205.219
lowerback 11.8304 2.34575 -0.656962
upperback -10.6589 2.66794 -0.92007
thorax -19.0203 1.06643 -1.40793
lowerneck -18.0376 -2.62506 -3.12484
upperneck 32.5277 -3.32031 -1.00768
head 14.1884 -2.27229 -0.517796
rclavicle 4.27387e-015 -4.37326e-015
rhumerus 17.9778 -7.89983 -25.4631
rradius 109.338
rwrist -3.20088
rhand -42.3256 3.93552
rfingers 7.12502
rthumb -15.2088 -25.4855
lclavicle 4.27387e-015 -4.37326e-015
lhumerus 25.0621 7.69069 30.0382
lradius 108.212
lwrist -26.4082
lhand -59.479 34.9033
lfingers 7.12502
lthumb -31.6557 -297.822
rfemur -31.7697 18.0988 8.51309
rtibia 31.0039
rfoot -26.8774 -21.7238
rtoes -18.3024
lfemur -29.2064 -14.5199 -22.6431
ltibia 30.485
lfoot -31.1558 -5.23231
ltoes -47.5909
336
root 6.43321 15.8861 0.899302 213.285 -80.9601 -199.134
lowerback 11.6877 2.46754 -0.643389
upperback -10.7466 2.89618 -0.551421
thorax -19.0581 1.20263 -1.04525
lowerneck -18.3316 -2.62823 -3.02594
upperneck 32.2698 -3.33274 -0.945306
head 14.1376 -2.24202 -0.509897
rclavicle 1.62258e-014 5.96354e-015
rhumerus 17.7111 -7.66467 -25.4973
rradius 109.442
rwrist -2.29443
rhand -41.5233 3.3344
rfingers 7.12502
rthumb -14.4358 -26.1435
lclavicle 1.62258e-014 5.96354e-015
lhumerus 24.866 7.35299 29.9996
lradius 108.501
lwrist -26.5473
lhand -59.3611 34.3843
lfingers 7.12502
lthumb -31.5434 -298.319
rfemur -31.2791 16.7761 9.72938
rtibia 28.75
rfoot -26.3602 -21.7138
rtoes -21.6652
lfemur -29.5502 -15.2558 -21.0407
ltibia 29.7231
lfoot -31.7024 -5.218
ltoes -47.2485
